<?xml version="1.0" encoding="UTF-8"?>
<svg id="Layer_1" xmlns="http://www.w3.org/2000/svg" version="1.1" viewBox="0 0 500 450">
  <defs>
    <style>
      .st0 {
        fill: #ffffff;
      }
    </style>
  </defs>
  
  <path class="st0" d="M77.6,118.7c-13.2,0-24,10.8-24,24s10.8,24,24,24,24-10.8,24-24-10.8-24-24-24ZM77.6,158.4c-8.6,0-15.7-7-15.7-15.7s7-15.7,15.7-15.7,15.7,7,15.7,15.7-7,15.7-15.7,15.7ZM120.2,334.8c-10,0-18.2,8.2-18.2,18.2s8.2,18.2,18.2,18.2,18.2-8.2,18.2-18.2-8.2-18.2-18.2-18.2ZM120.2,363c-5.5,0-9.9-4.5-9.9-9.9s4.5-9.9,9.9-9.9,9.9,4.5,9.9,9.9-4.5,9.9-9.9,9.9ZM77.9,296.9c-11.6,0-21,9.4-21,21s9.4,21,21,21,21-9.4,21-21-9.4-21-21-21ZM77.9,330.5c-7,0-12.7-5.7-12.7-12.7s5.7-12.7,12.7-12.7,12.7,5.7,12.7,12.7-5.7,12.7-12.7,12.7ZM423,243.7c3.8-1.5,7.3-3,10.7-4.7.2-.1.5-.2.7-.3,68.7-34,60.9-106.4,56-151.7l-.4-4c-2.1-19.7-11.4-26.1-18.9-28.1-22.6-5.9-55.2,20.8-64.2,33.5-11.9,16.9-28.1,29.8-42.4,41.3-12,9.6-23.3,18.6-30.6,28.7-13.2,18.2-54.4,40.7-63.6,45.6-2.3-4.8-6-9.1-11.1-12.9,2.2-8.4,6.8-15.7,12.4-21.9l13.1,2.3c.2,0,.5,0,.7,0,2,0,3.7-1.4,4.1-3.4.4-2.2-1.1-4.4-3.4-4.8l-7.2-1.3c2.2-1.9,4.4-3.6,6.6-5.2l11.9,3.8c.4.1.8.2,1.3.2,1.7,0,3.4-1.1,4-2.9.7-2.2-.5-4.5-2.7-5.2l-5.6-1.8c1.5-.9,3-1.8,4.5-2.5l13.2,5.3c.5.2,1,.3,1.5.3,1.6,0,3.2-1,3.8-2.6.8-2.1-.2-4.5-2.3-5.4l-6.4-2.5c3.7-1.6,6.1-2.5,6.2-2.6,2.2-.8,3.3-3.1,2.5-5.3-.8-2.2-3.2-3.3-5.3-2.5-.5.2-3.5,1.3-7.8,3.2l.9-7.4c.3-2.3-1.3-4.3-3.6-4.6-2.2-.2-4.3,1.3-4.6,3.6l-1.6,12.8c-2.2,1.2-4.6,2.5-7,4l.4-8.3c.1-2.3-1.6-4.2-3.9-4.3-2.2-.1-4.2,1.6-4.3,3.9l-.7,14.6c-2.1,1.6-4.3,3.2-6.4,5l-.6-7c-.2-2.3-2.2-4-4.5-3.8-2.3.2-4,2.2-3.8,4.5l1.2,13.7c-6.1,6.7-11.2,14.5-14,23.5-.5-.3-1-.6-1.5-.8-1.2-.6-2.5-.6-3.7,0-.5.3-1,.6-1.5.8-2.9-9-7.9-16.8-14-23.5l1.2-13.7c.2-2.3-1.5-4.3-3.8-4.5-2.3-.2-4.3,1.5-4.5,3.8l-.6,7c-2.1-1.8-4.2-3.5-6.4-5.1l-.7-14.6c-.1-2.3-2.1-4-4.3-3.9-2.3.1-4,2.1-3.9,4.3l.4,8.3c-2.4-1.5-4.8-2.8-7-4l-1.6-12.8c-.3-2.3-2.4-3.8-4.6-3.6-2.3.3-3.9,2.4-3.6,4.6l.9,7.4c-4.3-1.9-7.3-3-7.8-3.2-2.2-.8-4.5.4-5.3,2.5-.8,2.2.4,4.5,2.5,5.3.1,0,2.5.9,6.2,2.6l-6.4,2.5c-2.1.8-3.2,3.3-2.3,5.4.6,1.6,2.2,2.6,3.8,2.6s1,0,1.5-.3l13.2-5.3c1.4.8,2.9,1.6,4.5,2.5l-5.6,1.8c-2.2.7-3.4,3-2.7,5.2.6,1.8,2.2,2.9,4,2.9s.8,0,1.3-.2l11.9-3.8c2.2,1.6,4.5,3.3,6.6,5.2l-7.2,1.3c-2.2.4-3.8,2.5-3.4,4.8.3,2,2.1,3.4,4.1,3.4s.5,0,.7,0l13.1-2.3c5.7,6.3,10.2,13.6,12.4,21.9-5.1,3.8-8.8,8.1-11.1,12.9-9.2-4.9-50.4-27.4-63.6-45.6-7.3-10.1-18.6-19.1-30.6-28.7-14.3-11.4-30.4-24.4-42.4-41.3-8.9-12.7-41.6-39.4-64.2-33.5-7.5,1.9-16.8,8.4-18.9,28.1l-.4,4c-4.9,45.3-12.7,117.6,56,151.7.2.2.4.2.7.3,3.4,1.7,6.9,3.2,10.7,4.7-18.7,3.2-37.7,10.2-51.1,22.8-14.3,13.4-20,31.3-16.6,51.8,5.2,31,26.1,57.1,55.9,69.8,12,5.1,24.5,7.7,36.3,7.7s27.3-3.6,37.8-10.8c30.6-20.9,44.7-40.5,56.1-56.3,7.8-10.8,14.2-19.6,23.8-26.4-.2,6.1,0,12.7.6,20.2,5.2,55.3,19.8,75,31.8,75s26.6-19.7,31.8-75c.7-7.5.9-14.1.6-20.2,9.6,6.8,16.1,15.6,23.8,26.4,11.3,15.7,25.5,35.3,56.1,56.3,10.5,7.2,23.7,10.8,37.8,10.8s24.2-2.5,36.3-7.7c29.9-12.7,50.7-38.8,55.9-69.8,3.4-20.5-2.3-38.4-16.6-51.8-13.4-12.5-32.4-19.6-51.1-22.8h0ZM468.9,63c7.2,1.9,11.5,8.9,12.7,20.9l.4,4.1c4.8,44.3,11.6,107.9-46,140.5,1.1-9.4,7-21.4,13.3-34,13-26.2,29.2-58.7,9.7-86.3-17.5-24.7-15.5-36.8-14.5-39.9,8.8-4.5,17.7-7.1,24.4-5.3h0ZM340.5,163.3c6.7-9.2,17.5-17.9,29.1-27.1,14.7-11.8,31.4-25.1,44-43,4.1-5.9,12.5-13.5,22-19.7.2,8,3.5,20.8,16.7,39.5,16.7,23.5,2.3,52.3-10.3,77.8-8,16-14.9,30-14.3,42-7.5,3.5-15.8,6.5-25.3,8.9-11.4-.3-21.8.6-29.8,2.5-34.6,8.2-88,6.7-98.2,6.4-1.3-1.3-3-2.4-5.1-3.3,3.3-5.3,7.2-14,3.8-21.5-.4-.9-.9-1.7-1.4-2.5.8-2.4,1.5-6.4.9-11.1,4.9-2.5,52.5-27.5,67.9-48.9h0ZM272.6,310.2c-15.6-4.3-32.8-4.3-48.4,0-.1-4.8,0-8.9.3-12.5,15.1-4.7,32.6-4.7,47.7,0,.3,3.6.5,7.8.3,12.5ZM261.9,371.1c-8.7-1.3-18.3-1.3-27,0-1.3-3.4-2.6-7.4-3.8-12,11.4-2.4,23.3-2.4,34.6,0-1.2,4.6-2.5,8.6-3.8,12ZM229.2,351.1c-.8-3.7-1.5-7.6-2.2-12,13.9-3.7,28.9-3.7,42.8,0-.7,4.3-1.4,8.3-2.2,12-12.6-2.7-25.8-2.7-38.4,0h0ZM272,321.8c-.3,3.2-.6,6.2-1,9.1-14.7-3.8-30.5-3.8-45.1,0-.3-2.9-.7-5.9-1-9.1-.1-1.1-.1-2-.2-3,15.2-4.6,32.4-4.6,47.5,0,0,1-.1,1.9-.2,3h0ZM226,288.7c3.3-13.9,10-15.1,9.8-15.1h24.8c.1,0,6.8,1.2,10.2,15.1-14.5-3.7-30.4-3.7-44.8,0ZM231.3,229.2c1.7-3.7,7.8-5.9,16.9-6.3,9.5.4,15.6,2.6,17.2,6.3,2.1,4.6-2,11.9-4.7,15.8-3.6-.6-7.6-.9-12.4-.9s-8.8.3-12.4.9c-2.7-3.9-6.8-11.2-4.7-15.8h0ZM265.1,266.4c-2.1-.9-3.7-1.1-4.1-1.1h-25.4c-.3,0-1.8.2-3.9,1.1-2.6-3-4.9-6.9-4.1-9,.3-.8,2.8-5,20.8-5s20.5,4.2,20.8,5c.8,2.1-1.5,6-4.1,9h0ZM233.2,209.8c2-6,7.1-11.3,15.2-15.7,15.3,8.3,16.8,17.9,16.1,23.6-4.1-1.9-9.5-2.9-16.2-3.2-6.5.2-11.8,1.3-15.8,3.1-.3-2.1-.2-4.9.8-7.8h0ZM14.8,88l.4-4.1c1.3-12,5.6-19.1,12.7-20.9,6.7-1.7,15.6.8,24.4,5.3,1,3.1,3,15.2-14.5,39.9-19.5,27.5-3.3,60.1,9.7,86.3,6.3,12.6,12.2,24.6,13.3,34C3.1,195.9,10,132.2,14.8,88h0ZM69.2,232.8c.6-11.9-6.3-25.9-14.3-42-12.7-25.4-27-54.3-10.3-77.8,13.2-18.7,16.5-31.5,16.7-39.5,9.5,6.2,17.8,13.9,22,19.7,12.6,17.9,29.3,31.2,44,43,11.5,9.2,22.4,17.9,29.1,27.1,15.5,21.4,63.1,46.4,67.9,48.9-.6,4.7.2,8.6.9,11.1-.6.8-1,1.6-1.4,2.5-3.3,7.5.6,16.2,3.8,21.5-2.1.9-3.8,2-5.1,3.3-10.2.4-63.6,1.9-98.2-6.4-7.9-1.9-18.4-2.9-29.8-2.5-9.4-2.5-17.8-5.5-25.3-8.9h0ZM65.3,380.4c-27.6-11.8-46.2-34.9-51-63.5-3-17.9,1.7-32.8,14.1-44.4,4.7-4.4,10.3-8,16.4-11.1,1.8,3.7,4.3,11.1,2.6,22.2-.8,5.3-2.9,9.8-5,14.5-4.8,10.6-9.7,21.5.4,39.8,9.1,16.5,19.8,20.4,28.3,23.6,4.8,1.7,8.9,3.3,12.4,6.7,1.8,1.8,3.4,3.6,5,5.2,4.9,5.2,9.4,10.1,16.3,13.5-12.5,1.1-26.2-1-39.5-6.6h0ZM185.4,323.8c-11,15.2-24.6,34.2-54,54.2-3.1,2.1-6.6,3.8-10.2,5.2-13.9-1.9-19.1-7.3-26.6-15.4-1.6-1.7-3.3-3.6-5.2-5.4-4.7-4.7-10.1-6.7-15.4-8.6-8-2.9-16.3-6-23.9-19.8-8.1-14.7-4.6-22.5,0-32.4,2.3-5,4.6-10.2,5.6-16.7,2-12.7-.8-21.7-3.2-26.8,23.6-9.2,52.5-10.1,69.9-5.9,33.1,7.9,80.8,7.2,96.8,6.7.3,4.8,3.4,9.4,5.9,12.4-4.1,4.7-6.8,11.6-8.2,20.6-14.1,7.9-22.3,19.1-31.5,31.9h0ZM248.4,389.3c-2.4,0-6.1-3-10-10.3,6.5-.8,13.4-.8,20,0-3.9,7.3-7.6,10.3-10,10.3ZM311.4,323.8c-9.2-12.8-17.3-23.9-31.5-31.9-1.4-8.9-4.1-15.8-8.2-20.6h0c2.5-3,5.6-7.6,5.9-12.4,16,.5,63.8,1.1,96.8-6.7,17.4-4.1,46.3-3.2,69.9,5.9-2.4,5.1-5.2,14.1-3.2,26.8,1,6.4,3.4,11.6,5.6,16.7,4.5,9.9,8,17.7,0,32.4-7.6,13.8-15.9,16.9-23.9,19.8-5.2,1.9-10.7,3.9-15.4,8.6-1.9,1.9-3.6,3.7-5.2,5.4-7.5,8.1-12.7,13.5-26.6,15.4-3.6-1.4-7.1-3-10.2-5.2-29.4-20.1-43-39-54-54.2h0ZM482.5,316.9c-4.8,28.6-23.4,51.7-51,63.5-13.3,5.7-27,7.8-39.5,6.6,6.8-3.4,11.4-8.2,16.3-13.5,1.6-1.7,3.2-3.4,5-5.2,3.4-3.4,7.6-4.9,12.4-6.7,8.6-3.1,19.2-7,28.3-23.6,10.1-18.3,5.2-29.3.4-39.8-2.1-4.7-4.2-9.2-5-14.5-1.7-11.1.8-18.5,2.6-22.2,6.1,3,11.7,6.7,16.4,11.1,12.3,11.5,17.1,26.4,14.1,44.4h0ZM419.2,166.6c13.2,0,24-10.8,24-24s-10.8-24-24-24-24,10.8-24,24,10.8,24,24,24ZM419.2,127c8.7,0,15.7,7,15.7,15.7s-7,15.7-15.7,15.7-15.7-7-15.7-15.7,7-15.7,15.7-15.7ZM394.9,353c0-10-8.2-18.2-18.2-18.2s-18.2,8.2-18.2,18.2,8.2,18.2,18.2,18.2,18.2-8.2,18.2-18.2ZM366.7,353c0-5.5,4.5-9.9,9.9-9.9s9.9,4.5,9.9,9.9-4.5,9.9-9.9,9.9-9.9-4.5-9.9-9.9ZM419,338.8c11.6,0,21-9.4,21-21s-9.4-21-21-21-21,9.4-21,21,9.4,21,21,21ZM419,305.2c7,0,12.7,5.7,12.7,12.7s-5.7,12.7-12.7,12.7-12.7-5.7-12.7-12.7,5.7-12.7,12.7-12.7Z"/>
</svg>